<?xml version="1.0" encoding="UTF-8" standalone="no"?>
<!DOCTYPE svg PUBLIC "-//W3C//DTD SVG 1.1//EN" "http://www.w3.org/Graphics/SVG/1.1/DTD/svg11.dtd">
<!-- Создано Microsoft Visio, экспорт SVG nasosrem.svg Страница-1 -->
<svg xmlns="http://www.w3.org/2000/svg" xmlns:xlink="http://www.w3.org/1999/xlink" xmlns:ev="http://www.w3.org/2001/xml-events"
		xmlns:v="http://schemas.microsoft.com/visio/2003/SVGExtensions/" width="61" height="61"
		viewBox="0 0 43.4885 43.4885" xml:space="preserve" color-interpolation-filters="sRGB" class="st5">
	<v:documentProperties v:langID="8192" v:metric="true" v:viewMarkup="false"/>

	<style type="text/css">
	<![CDATA[
		.st1 {fill:#00b0f0;stroke:#000000;stroke-linecap:round;stroke-linejoin:round;stroke-width:0.75}
		.st2 {fill:#e8fc74;stroke:#000000;stroke-linecap:round;stroke-linejoin:round;stroke-width:0.75}
		.st3 {fill:#e8fc74;stroke:#d8d8d8;stroke-linecap:round;stroke-linejoin:round;stroke-width:0.75}
		.st4 {fill:#d8d8d8;stroke:#d8d8d8;stroke-linecap:round;stroke-linejoin:round;stroke-width:0.75}
		.st5 {fill:none;fill-rule:evenodd;font-size:12px;overflow:visible;stroke-linecap:square;stroke-miterlimit:3}
	]]>
	</style>

	<g v:mID="0" v:index="1" v:groupContext="foregroundPage">
		<title>Страница-1</title>
		<v:pageProperties v:drawingScale="0.0393701" v:pageScale="0.0393701" v:drawingUnits="24" v:shadowOffsetX="9"
				v:shadowOffsetY="-9"/>
		<g id="shape13-1" v:mID="13" v:groupContext="shape" transform="translate(0.375,-0.375)">
			<title>Лист.13</title>
			<ellipse cx="21.3692" cy="22.1192" rx="21.3692" ry="21.3692" class="st1"/>
		</g>
		<g id="shape14-3" v:mID="14" v:groupContext="shape" transform="translate(3.74424,-3.60251)">
			<title>Лист.14</title>
			<ellipse cx="18" cy="25.3468" rx="18" ry="18.1417" class="st2"/>
		</g>
		<g id="group75-5" transform="translate(9.06491,-9.05871)" v:mID="75" v:groupContext="group">
			<title>Лист.75</title>
			<g id="shape68-6" v:mID="68" v:groupContext="shape" transform="translate(10.1131,-10.2775)">
				<title>Лист.68</title>
				<ellipse cx="2.47123" cy="41.0173" rx="2.47123" ry="2.47123" class="st3"/>
			</g>
			<g id="shape69-8" v:mID="69" v:groupContext="shape" transform="translate(-4.996E-15,-13.4024)">
				<title>Лист.69</title>
				<path d="M11.92 41.64 A4.68045 2.91421 -134.08 0 0 10.05 43.45 A12.2045 8.74105 83.87 0 1 0 32.34 A11.7981 7.72048
							 61.82 0 1 11.92 41.64 Z" class="st4"/>
			</g>
			<g id="shape70-10" v:mID="70" v:groupContext="shape" transform="translate(13.5218,-13.1888)">
				<title>Лист.70</title>
				<path d="M1.61 43.27 A2.0037 2.00369 -135 0 0 0.11 41.7 L0.03 41.63 A12.4296 8.81912 171.63 0 1 11.44 31.31 A11.9648
							 7.68768 150.74 0 1 1.77 43.49 a2.53955 0.0846032 -135 0 0 -0.162476 -0.215934 Z" class="st4"/>
			</g>
			<g id="shape72-12" v:mID="72" v:groupContext="shape" transform="translate(0.965251,-4.9738E-14)">
				<title>Лист.72</title>
				<path d="M9.21 30.89 A8.67101 3.60158 -44.27 0 0 11.75 33.49 A11.9619 6.85857 154.86 0 1 0.15 43.49 A12.0646 7.75224
							 148.24 0 1 9.21 30.89 Z" class="st4"/>
			</g>
			<g id="shape73-14" v:mID="73" v:groupContext="shape" transform="translate(25.3587,74.8681) rotate(180)">
				<title>Лист.73</title>
				<path d="M11.92 41.64 A4.68045 2.91421 -134.08 0 0 10.05 43.45 A12.2045 8.74105 83.87 0 1 0 32.34 A11.7981 7.72048
							 61.82 0 1 11.92 41.64 Z" class="st4"/>
			</g>
		</g>
	</g>
</svg>
